<?xml version="1.0" encoding="utf-8"?>
<!-- Generator: Adobe Illustrator 27.6.1, SVG Export Plug-In . SVG Version: 6.00 Build 0)  -->
<svg version="1.1" id="Layer_1" xmlns="http://www.w3.org/2000/svg" xmlns:xlink="http://www.w3.org/1999/xlink" x="0px" y="0px"
	 viewBox="0 0 1000 1000" style="enable-background:new 0 0 1000 1000;" xml:space="preserve">
<style type="text/css">
	.st0{fill:#FFFFFF;}
</style>
<g>
	<g>
		<path class="st0" d="M344.24,812.89c-16.67-9.36-29.54-22.58-38.61-39.64c-9.07-17.06-13.61-36.73-13.61-59.02
			c0-22.09,4.78-41.66,14.35-58.72c9.56-17.06,22.68-30.32,39.35-39.79c16.66-9.47,35.45-14.2,56.36-14.2
			c23.47,0,43.34,5.23,59.61,15.68c16.27,10.46,28.25,25.44,35.94,44.97c0.39,1.18,0.59,1.88,0.59,2.07c0,0.99-0.35,1.83-1.04,2.51
			c-0.69,0.69-1.53,1.14-2.51,1.33l-45.26,12.13c-0.4,0.2-0.99,0.3-1.78,0.3c-1.58,0-2.96-0.89-4.14-2.66
			c-8.88-15.18-22.68-22.78-41.42-22.78c-15.98,0-28.8,5.38-38.46,16.12c-9.67,10.75-14.5,25.1-14.5,43.04
			c0,17.95,4.88,32.3,14.64,43.04c9.76,10.75,22.53,16.12,38.31,16.12c23.67,0,39.24-10.25,46.74-30.77
			c1.18-2.96,3.06-4.04,5.62-3.25l44.97,11.83c2.96,0.99,4.14,2.66,3.55,5.03c-6.51,21.3-18.64,38.41-36.39,51.33
			c-17.75,12.92-39.35,19.38-64.79,19.38C380.08,826.94,360.91,822.26,344.24,812.89z"/>
		<path class="st0" d="M590.53,822.8c-3.16,0-4.73-1.58-4.73-4.73V657.42h-62.42c-2.96,0-4.44-1.48-4.44-4.44v-42.6
			c0-3.15,1.48-4.73,4.44-4.73h179.87c3.15,0,4.73,1.58,4.73,4.73v42.6c0,1.38-0.44,2.47-1.33,3.26c-0.89,0.79-2.02,1.18-3.4,1.18
			h-62.13v160.64c0,3.16-1.58,4.73-4.73,4.73H590.53z"/>
	</g>
	<g>
		<path class="st0" d="M51.33,999.53c-7.29,0-14.08-1.35-20.36-4.04c-6.29-2.69-11.72-6.39-16.32-11.09
			c-4.59-4.7-8.19-10.22-10.77-16.56C1.29,961.51,0,954.75,0,947.57c0-7.39,1.32-14.26,3.96-20.6c2.64-6.34,6.28-11.85,10.93-16.56
			c4.65-4.7,10.16-8.4,16.56-11.09c6.39-2.69,13.28-4.04,20.67-4.04c8.87,0,16.53,1.56,22.97,4.67c6.44,3.12,12.25,6.89,17.43,11.33
			l-9.51,13.47c-1.69-1.37-3.57-2.77-5.62-4.2c-2.06-1.43-4.3-2.75-6.73-3.96c-2.43-1.21-5.15-2.19-8.16-2.93
			c-3.01-0.74-6.42-1.11-10.22-1.11c-4.75,0-9.24,0.85-13.47,2.54c-4.23,1.69-7.92,4.07-11.09,7.13c-3.17,3.07-5.68,6.71-7.53,10.93
			c-1.85,4.23-2.77,8.93-2.77,14.1c0,4.75,0.79,9.22,2.38,13.39c1.58,4.17,3.83,7.84,6.73,11.01c2.9,3.17,6.47,5.7,10.69,7.6
			c4.22,1.9,8.92,2.85,14.1,2.85c4.22,0,8.08-0.55,11.57-1.66c3.49-1.11,6.6-2.43,9.35-3.96c2.75-1.53,5.09-3.11,7.05-4.75
			c1.95-1.64,3.46-2.93,4.51-3.88l9.51,13.62c-2.22,2.22-4.73,4.41-7.53,6.58c-2.8,2.17-5.92,4.09-9.35,5.78
			c-3.43,1.69-7.24,3.07-11.41,4.12C60.86,999,56.29,999.53,51.33,999.53z"/>
		<path class="st0" d="M104.4,896.87h17.43v41.35h46.9v-41.35h17.43v101.39h-17.43v-41.35h-46.9v41.35H104.4V896.87z"/>
		<path class="st0" d="M238.75,896.87h16.16L298,998.26h-19.33l-7.61-18.7h-48.48l-7.61,18.7h-19.33L238.75,896.87z M263.78,962.14
			l-16.95-41.03l-16.95,41.03H263.78z"/>
		<path class="st0" d="M307.51,896.87h24.56c1.05,0,2.35,0,3.88,0c1.53,0,3.17,0.03,4.91,0.08c1.74,0.05,3.43,0.11,5.07,0.16
			c1.64,0.06,3.03,0.08,4.2,0.08c5.17,0.21,9.93,1.14,14.26,2.77c4.33,1.64,8.08,3.96,11.25,6.97s5.62,6.71,7.37,11.09
			c1.74,4.38,2.61,9.53,2.61,15.45c0,8.77-1.88,15.87-5.62,21.31c-3.75,5.44-8.85,9.37-15.29,11.8l22.66,31.69H364.7l-20.44-28.83
			h-12.2h-7.13v28.83h-17.43V896.87z M332.07,952c0.95,0,2.27,0,3.96,0c1.69,0,3.41,0,5.15,0c1.74,0,3.38-0.03,4.91-0.08
			c1.53-0.05,2.61-0.08,3.25-0.08c5.81-0.32,10.4-1.95,13.78-4.91c3.38-2.96,5.07-7.45,5.07-13.47c0-6.02-1.69-10.59-5.07-13.7
			c-3.38-3.11-7.98-4.83-13.78-5.15c-0.63,0-1.72-0.02-3.25-0.08c-1.53-0.05-3.17-0.1-4.91-0.16c-1.74-0.05-3.46-0.08-5.15-0.08
			c-1.69,0-3.01,0-3.96,0h-7.13V952H332.07z"/>
		<path class="st0" d="M468.79,896.87v17.43h-52.76v24.56l51.81,0.16v17.43h-51.49v24.4h52.44v17.43h-70.34V896.87H468.79z"/>
		<path class="st0" d="M529.78,999.53c-7.08,0-13.7-1.4-19.88-4.2c-6.18-2.8-11.54-6.58-16.08-11.33
			c-4.54-4.75-8.14-10.3-10.77-16.63c-2.64-6.34-3.96-13.04-3.96-20.12c0-7.07,1.29-13.76,3.88-20.04
			c2.59-6.28,6.15-11.8,10.69-16.56c4.54-4.75,9.9-8.5,16.08-11.25c6.18-2.75,12.81-4.12,19.88-4.12c7.18,0,13.86,1.37,20.04,4.12
			c6.18,2.75,11.54,6.47,16.08,11.17c4.54,4.7,8.13,10.19,10.77,16.48c2.64,6.28,3.96,13.02,3.96,20.2c0,7.08-1.29,13.78-3.88,20.12
			c-2.59,6.34-6.18,11.88-10.77,16.63c-4.59,4.75-9.96,8.53-16.08,11.33C543.62,998.13,536.97,999.53,529.78,999.53z M529.78,912.71
			c-4.65,0-9.01,0.93-13.07,2.77c-4.07,1.85-7.6,4.36-10.62,7.53c-3.01,3.17-5.39,6.81-7.13,10.93c-1.74,4.12-2.61,8.5-2.61,13.15
			c0,4.65,0.87,9.08,2.61,13.31c1.74,4.23,4.12,7.92,7.13,11.09c3.01,3.17,6.55,5.68,10.62,7.53c4.07,1.85,8.42,2.77,13.07,2.77
			c4.65,0,9-0.92,13.07-2.77c4.07-1.85,7.61-4.36,10.62-7.53c3.01-3.17,5.36-6.86,7.05-11.09c1.69-4.22,2.54-8.66,2.54-13.31
			c0-4.65-0.85-9.03-2.54-13.15c-1.69-4.12-4.04-7.76-7.05-10.93c-3.01-3.17-6.55-5.68-10.62-7.53
			C538.79,913.64,534.43,912.71,529.78,912.71z"/>
		<path class="st0" d="M593.95,998.26V896.87h17.43l50.7,71.77v-71.77h17.43v101.39h-17.43l-50.7-71.61v71.61H593.95z"/>
		<path class="st0" d="M779.63,914.29v83.97H762.2v-83.97h-32v-17.43h81.11v17.43H779.63z"/>
		<path class="st0" d="M865.34,999.53c-5.92,0-11.36-0.93-16.32-2.77c-4.97-1.85-9.3-4.49-12.99-7.92
			c-3.7-3.43-6.68-7.53-8.95-12.28c-2.27-4.75-3.67-10.03-4.2-15.84c-0.11-1.37-0.19-3.01-0.24-4.91c-0.06-1.9-0.11-3.88-0.16-5.94
			c-0.05-2.06-0.08-4.17-0.08-6.34c0-2.16,0-4.2,0-6.1v-40.56h17.43v40.56c0,1.9,0,3.91,0,6.02c0,2.11,0.02,4.17,0.08,6.18
			c0.05,2.01,0.1,3.86,0.16,5.54c0.05,1.69,0.13,3.07,0.24,4.12c0.32,3.59,1.16,6.79,2.54,9.59c1.37,2.8,3.17,5.18,5.39,7.13
			c2.22,1.96,4.81,3.46,7.76,4.52c2.96,1.06,6.07,1.58,9.35,1.58c3.38,0,6.49-0.53,9.35-1.58c2.85-1.06,5.36-2.54,7.53-4.44
			c2.16-1.9,3.93-4.25,5.31-7.05c1.37-2.8,2.16-5.94,2.38-9.43c0.1-1.16,0.18-2.59,0.24-4.28c0.05-1.69,0.1-3.57,0.16-5.62
			c0.05-2.06,0.08-4.14,0.08-6.26c0-2.11,0-4.12,0-6.02v-40.56h17.43v40.56c0,1.9,0,3.94,0,6.1c0,2.17-0.03,4.28-0.08,6.34
			c-0.05,2.06-0.11,4.02-0.16,5.86c-0.06,1.85-0.13,3.41-0.24,4.67c-0.53,5.81-1.88,11.12-4.04,15.92
			c-2.17,4.81-5.07,8.93-8.71,12.36c-3.64,3.43-7.92,6.1-12.83,8C876.82,998.58,871.36,999.53,865.34,999.53z"/>
		<path class="st0" d="M968.32,914.29v83.97h-17.43v-83.97h-32v-17.43H1000v17.43H968.32z"/>
	</g>
	<path class="st0" d="M619.17,498.18l-118-497.71L384.34,498.18L219.6,266.85v280.4H780.4V265.68L619.17,498.18z M241.8,523.44
		V341.18l130.85,182.26H241.8z M405.37,523.44L500,102.84l99.31,420.6H405.37z M759.37,523.44H628.52l130.85-182.26V523.44z"/>
</g>
</svg>
